Coordinates
version=1
nRows=7
nColumns=40
inDegrees=yes

Units are S.I. units (second, meters, Newtons, ...)
Angles are in degrees.

endheader
time	pelvis_tilt	pelvis_list	pelvis_rotation	pelvis_tx	pelvis_ty	pelvis_tz	hip_flexion_r	hip_adduction_r	hip_rotation_r	knee_angle_r	knee_angle_r_beta	ankle_angle_r	subtalar_angle_r	mtp_angle_r	hip_flexion_l	hip_adduction_l	hip_rotation_l	knee_angle_l	knee_angle_l_beta	ankle_angle_l	subtalar_angle_l	mtp_angle_l	lumbar_extension	lumbar_bending	lumbar_rotation	arm_flex_r	arm_add_r	arm_rot_r	elbow_flex_r	pro_sup_r	wrist_flex_r	wrist_dev_r	arm_flex_l	arm_add_l	arm_rot_l	elbow_flex_l	pro_sup_l	wrist_flex_l	wrist_dev_l
     14.37892857	     -4.46096155	     -3.42513415	     -5.49028044	      0.76084306	      0.92608354	      0.43617610	     25.86620294	      0.39578415	    -14.46271503	      9.91975760	      9.91975760	      2.28837492	      8.44446243	      8.87542367	      0.68443187	     -3.13628612	    -13.60129032	     10.95778785	     10.95778785	     14.86021271	     -6.44933564	     -8.58284977	     -9.07093702	      4.46110550	      1.56442039	    -15.61344741	    -13.20199278	     -8.90515266	     22.55769191	     47.06637967	      0.00000000	      0.00000000	     19.88740525	    -19.92330313	    -12.82245588	     72.82129600	     47.33675224	      0.00000000	      0.00000000
     14.39285714	     -4.41342819	     -3.43648813	     -5.50544984	      0.76222513	      0.92466902	      0.43838357	     25.62685839	      0.61677026	    -14.68763452	      9.96463736	      9.96463736	      2.09938746	      8.49964693	      8.65326463	     -0.00737928	     -3.22996570	    -13.65281401	     10.92573665	     10.92573665	     15.42881810	     -6.32669246	     -8.52854070	     -8.98059300	      4.61083864	      1.55872392	    -15.83281736	    -13.12373190	     -9.10822399	     22.60046996	     47.07817962	      0.00000000	      0.00000000	     19.94634242	    -19.83768102	    -12.94729362	     73.46516195	     47.36167242	      0.00000000	      0.00000000
     14.40678571	     -4.35284934	     -3.45034510	     -5.49727694	      0.76386280	      0.92315942	      0.44076149	     25.23533781	      0.86572467	    -14.62842290	      9.99306011	      9.99306011	      0.87578648	      7.98513526	      5.14821469	     -0.51520290	     -3.45633781	    -14.11012585	     11.42148203	     11.42148203	     17.10114347	     -5.11597307	     -6.60495440	     -8.88776065	      4.74375341	      1.29559611	    -15.77907214	    -12.93154160	    -10.61429953	     22.84795808	     47.17293282	      0.00000000	      0.00000000	     19.39966727	    -19.71852025	    -13.61244932	     74.88204304	     47.47978221	      0.00000000	      0.00000000
     14.42071429	     -4.35833274	     -3.55958535	     -5.42912861	      0.76552646	      0.92172294	      0.44315750	     24.93877266	      1.11300776	    -14.72215224	     10.39791913	     10.39791913	      0.75996261	      7.73583963	      5.02546788	     -1.09706046	     -3.68759607	    -13.96017957	     11.48788325	     11.48788325	     17.61464761	     -5.22110723	     -6.69228757	     -8.67310158	      4.99336565	      1.26194179	    -15.64303891	    -12.78837080	    -10.61254672	     22.89522250	     47.17087205	      0.00000000	      0.00000000	     19.40276816	    -19.54728248	    -13.54806887	     74.96012343	     47.47763054	      0.00000000	      0.00000000
     14.43464286	     -4.17514180	     -3.73376576	     -5.29776930	      0.76741699	      0.92037690	      0.44579585	     24.55422529	      1.49551556	    -13.84267082	     11.06988694	     11.06988694	     -0.63069806	      5.43225006	      0.63178309	     -1.58838999	     -4.11879913	    -14.00343045	     12.30116851	     12.30116851	     19.38837562	     -4.59115727	     -4.11990545	     -8.73138071	      5.33327695	      1.21218818	    -15.37573565	    -12.67140961	    -11.04689637	     23.10741870	     47.17807077	      0.00000000	      0.00000000	     19.01964983	    -19.36629184	    -13.59479848	     75.85055091	     47.52595568	      0.00000000	      0.00000000
     14.44857143	     -4.03603089	     -3.94286215	     -5.15081882	      0.76938690	      0.91919428	      0.44837084	     24.37196959	      1.73186316	    -13.68912130	     12.26792353	     12.26792353	     -0.59144539	      4.50934381	     -0.18711949	     -2.13783134	     -4.53336460	    -13.77476970	     12.78393210	     12.78393210	     19.98569375	     -4.80492198	     -3.88538848	     -8.69416267	      5.73482674	      1.24498491	    -14.99005944	    -12.57433850	    -11.04891730	     23.21284519	     47.17266750	      0.00000000	      0.00000000	     18.85129742	    -19.03130793	    -13.51136582	     75.84535633	     47.52431236	      0.00000000	      0.00000000
     14.46250000	     -3.89130938	     -4.18162642	     -4.95518518	      0.77137744	      0.91822085	      0.45109091	     24.19188215	      2.02819061	    -13.25400786	     13.48939657	     13.48939657	     -0.57745032	      3.10608412	     -1.22478270	     -2.53333108	     -5.03596428	    -13.40325681	     13.56566731	     13.56566731	     20.56235465	     -5.16340659	     -3.38418986	     -8.66953363	      6.15850048	      1.23963978	    -14.45502907	    -12.49124013	    -11.03639180	     23.40069761	     47.16359948	      0.00000000	      0.00000000	     18.54261429	    -18.72117355	    -13.41056860	     75.81153617	     47.52009032	      0.00000000	      0.00000000
